<!-- Generator: Adobe Illustrator 19.0.0, SVG Export Plug-In . SVG Version: 6.00 Build 0)  -->
<svg xmlns="http://www.w3.org/2000/svg" xmlns:xlink="http://www.w3.org/1999/xlink"  width="100%" height="100%"
	 viewBox="0 0 20 12"  >
<path fill="currentColor" d="M11,11c0-0.4-0.3-0.8-0.8-0.8H0.8C0.3,10.3,0,10.6,0,11s0.3,0.8,0.8,0.8h9.5
	C10.7,11.8,11,11.4,11,11z M20,6c0-0.4-0.3-0.8-0.8-0.8H0.8C0.3,5.3,0,5.6,0,6s0.3,0.8,0.8,0.8h18.5C19.7,6.8,20,6.4,20,6z M16,1
	c0-0.4-0.3-0.8-0.8-0.8H0.8C0.3,0.3,0,0.6,0,1s0.3,0.8,0.8,0.8h14.5C15.7,1.8,16,1.4,16,1z"/>
</svg>
