<?xml version="1.0" encoding="utf-8"?>
<!-- Generator: Adobe Illustrator 19.0.0, SVG Export Plug-In . SVG Version: 6.00 Build 0)  -->
<svg version="1.1" id="Layer_1" xmlns="http://www.w3.org/2000/svg" xmlns:xlink="http://www.w3.org/1999/xlink" 
	width="100%" height="100%"
	 viewBox="0 0 75 101" style="enable-background:new 0 0 75 101;" xml:space="preserve">
<path fill="currentColor" id="XMLID_288_" d="M39.6,100.5c-1,0-2.1,0-3.1,0c-0.1,0-0.2,0-0.3,0c-2-0.1-4-0.3-6-0.7c-4.3-0.9-8.3-2.4-12.1-4.7
	c-5.7-3.5-10.2-8.1-13.4-14c-3-5.4-4.5-11.2-4.7-17.3c-0.1-1.8,0.2-3.6,0.5-5.4c0.6-3.7,1.7-7.3,3.3-10.6c2.6-5.5,6.3-10.2,11-14.1
	c3.5-2.9,7.4-5.1,11.7-6.6c1.3-0.5,2.6-0.8,3.9-1.2c0.1,0,0.2,0,0.2,0c0.2,0.3,0.3,0.6,0.5,1c-3.1,1.9-5.8,4.1-8.2,6.8
	c-2.4,2.6-4.3,5.6-5.8,8.8c9-4,17.9-7.9,26.9-11.8c0,0.1,0,0.2,0,0.3c0,12.4,0,24.7,0,37.1c0,0.2-0.1,0.3-0.2,0.4
	c-7.2,3.5-14.4,7-21.6,10.5c-0.1,0-0.2,0.1-0.3,0.1c0.1,0.1,0.1,0.1,0.2,0.2c2.2,2.4,4.8,4.3,7.8,5.7c3.3,1.6,6.9,2.5,10.6,2.7
	c1,0,1.9,0,2.9,0c1.2,0,2.3,0,3.5-0.2c3.3-0.3,6.4-1.4,9.3-3c0.1-0.1,0.2-0.2,0.2-0.3c0-7.6,0-15.1,0-22.7c0-0.2,0-0.3-0.2-0.4
	c-2.6-2.2-5.1-4.4-7.7-6.7c-0.3-0.3-0.3-0.6,0-0.9c2.6-2.2,5.1-4.5,7.7-6.7c0.1-0.1,0.2-0.2,0.2-0.4c0-5.4,0-10.8,0-16.2
	c0-0.1,0-0.2,0-0.3c-1.2-0.2-2.4-0.4-3.6-0.6c-4.4-0.8-8.8-1.7-13.1-2.8c-1.2-0.3-2.4-0.7-3.6-1c-1.2-0.4-2.4-0.9-3.6-1.3
	c-3.2-1-6.4-1.9-9.6-2.5c-2-0.4-4.1-0.7-6.1-0.9c-2.6-0.3-4.7,0.6-6.3,2.6c-0.8,1-1.3,2.1-1.4,3.4c-0.1,2.1,0.8,3.7,2.6,4.9
	c0.2,0.1,0.4,0.3,0.7,0.4c-0.2,0.4-0.3,0.7-0.5,1.1c-0.1,0-0.1,0-0.2-0.1c-3.8-1.6-6.3-4.4-7.4-8.3c-0.6-2.1-0.6-4.1-0.2-6.2
	c1-5,3.6-8.8,7.8-11.6c2.1-1.4,4.4-2.2,7-2.6c1.1-0.2,2.3-0.3,3.4-0.2c2,0.2,4,0.5,6,0.8c4,0.7,7.9,1.7,11.7,3.1
	c2.8,1,5.6,2,8.5,2.8c3.4,0.9,6.8,1.5,10.2,1.9c2.4,0.2,4.4-0.7,5.6-2.8c0.8-1.3,1-2.7,0.5-4.2c-0.4-1.3-1.4-2.1-2.5-2.7
	c-1.4-0.7-2.9-1-4.4-1.1c-0.5,0-0.9,0-1.4-0.1c0-0.5,0-1.1,0-1.6c0.1,0,0.1,0,0.2,0c2,0,3.9,0.2,5.8,0.5C64.9,1.4,67,2.1,69,3.3
	c3.2,1.9,5.1,4.6,5.7,8.3c0.1,0.5,0.1,1,0.2,1.5c0,0.7,0,1.3,0,2c-0.1,0.4-0.1,0.9-0.2,1.3c-0.7,4.2-2.7,7.6-6.1,10.2
	c-2.9,2.1-6.1,3.1-9.7,3c-0.1,0-0.1,0-0.2,0c0,0.1,0,0.1,0,0.2c0,5.2,0,10.5,0,15.7c0,0.1,0.1,0.3,0.1,0.3c2.6,2.2,5.2,4.5,7.8,6.7
	c0.2,0.2,0.2,0.6,0,0.8c-2.8,2.2-5.5,4.5-8.3,6.7c-0.1,0.1-0.2,0.2-0.2,0.3c0,7.2,0,14.4,0,21.6c0,0.1,0,0.1,0,0.2
	c0.1,0,0.1-0.1,0.2-0.1c4.5-2.9,8.2-6.6,11-11.1c1-1.7,1.9-3.4,2.7-5.2c0-0.1,0.1-0.2,0.2-0.2c0.3,0,0.7,0,1,0c0,0.1,0,0.2,0,0.3
	c0,2.8-0.4,5.5-1.1,8.2c-1.7,6.8-5.1,12.6-10.3,17.3c-6,5.5-13.1,8.5-21.2,9.1C40.4,100.5,40,100.5,39.6,100.5z M21.6,76.3
	c0.1,0,0.2-0.1,0.2-0.1c2-1,4-2,6-3c0.2-0.1,0.2-0.2,0.2-0.4c0.1-3.6,0.1-7.2,0.2-10.8c0.1-3.6,0.1-7.1,0.2-10.7
	c0.1-3.8,0.1-7.7,0.2-11.5c0-0.1,0-0.1,0-0.2c-0.3,0.1-0.6,0.3-0.9,0.4c-3.4,1.4-6.8,2.9-10.1,4.3c-0.1,0-0.2,0.1-0.2,0.2
	c-0.8,2.7-1.3,5.5-1.5,8.3c-0.1,1.1-0.1,2.2-0.1,3.4c-0.1,2.3,0.1,4.7,0.5,7c0.7,3.8,2,7.3,3.9,10.6C20.6,74.8,21.1,75.5,21.6,76.3z
	"/>
</svg>
