<?xml version="1.0" encoding="utf-8"?>
<!-- Generator: Adobe Illustrator 19.0.0, SVG Export Plug-In . SVG Version: 6.00 Build 0)  -->
<svg version="1.1" xmlns="http://www.w3.org/2000/svg" xmlns:xlink="http://www.w3.org/1999/xlink" x="0px" y="0px" width="100%" height="100%" 
	 viewBox="0 0 101 101" style="enable-background:new 0 0 101 101;" xml:space="preserve">
<path fill="currentColor" id="XMLID_36_" d="M49.8,0.4c28.6,0.2,49.3,22,50.7,47.1c0.8,14.4-3.7,26.9-13.6,37.4c-9,9.6-20.3,14.9-33.5,15.6
	c-14.3,0.8-26.9-3.8-37.3-13.6c-9.6-9-14.8-20.3-15.6-33.4c-0.8-14.3,3.7-26.9,13.6-37.3C23.9,5.7,36.2,0.6,49.8,0.4z M54.6,88.2
	c-0.2,0-0.3-0.1-0.5-0.1c-1.1-0.2-2.3-0.2-3.3-0.6c-3.5-1.1-6-3.6-7.9-6.6c-1.8-2.8-3-5.9-3.9-9.1c-1.1-3.8-1.8-7.7-2-11.7
	c-0.2-3.7-0.3-7.3-0.3-11c0-6.9,0.7-13.7,2.9-20.3c1.1-3.2,2.5-6.3,4.6-9c2.6-3.2,5.8-5.4,10.1-5.5c0.1,0,0.3-0.1,0.4-0.1
	c0-0.5,0-1,0-1.5c-0.2,0-0.5-0.1-0.7-0.1c-2.5,0.1-5.1,0.1-7.6,0.5c-4.7,0.7-9.2,2.4-13.3,4.7c-5.7,3.3-10.4,7.6-13.9,13.3
	c-2.6,4.3-4.2,9-4.8,14c-0.8,5.8-0.5,11.6,1.1,17.3c1.5,5.3,4.1,10,7.7,14.1c3.3,3.7,7.2,6.6,11.7,8.8c5.8,2.9,11.9,4.4,18.4,4.3
	C54.7,89.8,54.7,89.8,54.6,88.2z M58.8,88.5c2.6-0.6,5-1.4,7.3-2.4c3.4-1.5,6.7-3.3,9.6-5.6c0.6-0.5,0.8-1,0.8-1.7
	c0-7.4,0-14.9,0-22.3c0-0.5,0.1-0.8,0.6-1c1.4-0.6,2.8-1.2,4.2-1.8c0.8-0.3,0.4-1,0.4-1.5c0-0.6-0.5-0.3-0.8-0.3c-9,0-17.9,0-26.9,0
	c-0.3,0-0.8-0.2-0.7,0.4c0,0.5-0.3,1,0.5,1.3c1.4,0.4,2.8,1,4.2,1.4c0.7,0.2,0.9,0.5,0.9,1.3c0,10.4,0,20.8,0,31.2
	C58.8,87.7,58.8,88,58.8,88.5z M58.7,12.5c-0.2,1.1,0,1.8,0.5,2.5c1.5,1.8,2.8,3.7,4.2,5.6c3.5,4.7,7,9.5,10.5,14.2
	c0.7,0.9,1.1,1,2.3,0.6c0-0.2,0-0.4,0-0.6c0-4.1-0.1-8.1,0-12.2c0-1.2-0.3-2-1.3-2.7c-0.1,0-0.1-0.1-0.2-0.1
	c-3.4-2.7-7.2-4.6-11.3-6C62,13.3,60.3,12.9,58.7,12.5z"/>
</svg>
